<svg width="388" height="282" viewBox="0 0 388 282" fill="none" xmlns="http://www.w3.org/2000/svg">
<path d="M198.159 281.402C209.829 281.402 219.289 271.646 219.289 259.61C219.289 247.575 209.829 237.818 198.159 237.818C186.49 237.818 177.029 247.575 177.029 259.61C177.029 271.646 186.49 281.402 198.159 281.402Z" fill="#0B666A"/>
<path d="M324.391 280.178C336.212 276.517 348.78 272.699 358.155 263.995C366.532 256.217 372.188 244.339 368.717 232.675C365.254 221.034 354.88 213.272 344.169 209.412C338.094 207.222 331.739 206.007 325.386 205.053C318.48 204.016 311.543 203.166 304.609 202.348C276.535 199.036 248.355 197.013 220.069 196.279C206.112 195.916 192.157 195.925 178.198 196.134C165.732 196.321 152.603 196.316 141.038 190.851C132.044 186.602 123.882 178.871 121.376 168.712C118.483 156.985 123.819 145.042 131.472 136.549C135.507 132.072 140.222 128.304 145.086 124.839C150.363 121.08 155.823 117.588 161.402 114.328C172.39 107.91 183.878 102.448 195.746 97.9984C201.601 95.8028 207.542 93.9086 213.536 92.1612C218.596 90.6856 223.673 89.208 228.564 87.1976C238.019 83.3111 247.011 76.728 249.416 65.9354C251.694 55.7066 247.852 44.6025 241.117 37.0037C233.326 28.2125 221.577 24.3587 210.313 23.7352C197.668 23.0352 185.315 26.2991 173.429 30.4414C160.753 34.8595 148.35 39.9396 135.405 43.5182C122.569 47.0634 109.485 49.5718 96.2708 51.0206C89.8021 51.731 83.1379 52.5331 76.6308 51.9893C71.1772 51.5335 65.7514 49.8794 61.7322 45.8877C58.286 42.465 56.233 37.7611 56.9388 32.7971C57.067 31.8955 58.395 32.2788 58.2676 33.1749C57.4084 39.2175 61.3911 44.7856 66.2989 47.6379C71.971 50.9343 78.8732 50.9388 85.1881 50.5618C98.8808 49.7089 112.481 47.6813 125.847 44.5C138.981 41.4062 151.646 36.9835 164.296 32.259C176.311 27.7719 188.594 23.3925 201.43 22.4206C212.567 21.5774 224.283 23.2507 233.986 29.2535C242.513 34.5291 248.784 43.327 250.782 53.4229C252.734 63.2884 250.03 73.2182 242.789 80.1026C235.292 87.2307 225.012 90.2782 215.432 93.0849C203.281 96.6448 191.391 100.806 179.882 106.209C168.216 111.67 157.028 118.157 146.441 125.598C136.223 132.8 126.138 141.862 122.906 154.71C121.4 160.695 121.678 167.043 124.197 172.696C126.437 177.722 130.126 181.95 134.423 185.211C144.676 192.992 157.599 194.59 169.983 194.749C183.893 194.927 197.803 194.443 211.717 194.679C240.074 195.159 268.373 196.939 296.614 200.019C303.69 200.791 310.757 201.645 317.816 202.58C324.165 203.422 330.535 204.258 336.777 205.752C347.876 208.409 358.676 213.517 365.574 223.223C368.636 227.429 370.533 232.415 371.062 237.646C371.545 243.105 370.249 248.575 367.856 253.432C362.559 264.181 352.636 271.018 342.099 275.51C336.455 277.916 330.601 279.739 324.758 281.548C323.907 281.812 323.543 280.441 324.391 280.178Z" fill="#F2F2F2"/>
<path d="M57.8286 44.2948C63.9172 44.2948 68.853 39.2043 68.853 32.925C68.853 26.6456 63.9172 21.5552 57.8286 21.5552C51.74 21.5552 46.8043 26.6456 46.8043 32.925C46.8043 39.2043 51.74 44.2948 57.8286 44.2948Z" fill="#F2F2F2"/>
<path d="M134.31 65.8501C140.399 65.8501 145.334 60.7596 145.334 54.4803C145.334 48.2009 140.399 43.1105 134.31 43.1105C128.222 43.1105 123.286 48.2009 123.286 54.4803C123.286 60.7596 128.222 65.8501 134.31 65.8501Z" fill="#F2F2F2"/>
<path d="M199.078 22.7396C205.167 22.7396 210.103 17.6492 210.103 11.3698C210.103 5.09043 205.167 0 199.078 0C192.99 0 188.054 5.09043 188.054 11.3698C188.054 17.6492 192.99 22.7396 199.078 22.7396Z" fill="#F2F2F2"/>
<path d="M239.501 71.0612C245.589 71.0612 250.525 65.9708 250.525 59.6914C250.525 53.4121 245.589 48.3217 239.501 48.3217C233.412 48.3217 228.476 53.4121 228.476 59.6914C228.476 65.9708 233.412 71.0612 239.501 71.0612Z" fill="#F2F2F2"/>
<path d="M184.838 126.963C190.927 126.963 195.863 121.872 195.863 115.593C195.863 109.314 190.927 104.223 184.838 104.223C178.75 104.223 173.814 109.314 173.814 115.593C173.814 121.872 178.75 126.963 184.838 126.963Z" fill="#F2F2F2"/>
<path d="M115.477 153.966C121.565 153.966 126.501 148.875 126.501 142.596C126.501 136.317 121.565 131.226 115.477 131.226C109.388 131.226 104.452 136.317 104.452 142.596C104.452 148.875 109.388 153.966 115.477 153.966Z" fill="#F2F2F2"/>
<path d="M188.973 196.129C195.061 196.129 199.997 191.039 199.997 184.759C199.997 178.48 195.061 173.389 188.973 173.389C182.884 173.389 177.948 178.48 177.948 184.759C177.948 191.039 182.884 196.129 188.973 196.129Z" fill="#F2F2F2"/>
<path d="M267.98 219.816C274.069 219.816 279.005 214.726 279.005 208.446C279.005 202.167 274.069 197.076 267.98 197.076C261.892 197.076 256.956 202.167 256.956 208.446C256.956 214.726 261.892 219.816 267.98 219.816Z" fill="#F2F2F2"/>
<path d="M360.309 214.605C366.398 214.605 371.334 209.514 371.334 203.235C371.334 196.956 366.398 191.865 360.309 191.865C354.221 191.865 349.285 196.956 349.285 203.235C349.285 209.514 354.221 214.605 360.309 214.605Z" fill="#F2F2F2"/>
<path d="M195.896 32.216C162.873 32.4566 135.833 60.1335 135.364 94.1891C135.36 94.5035 135.358 96.7144 135.358 99.606C135.358 103.846 136.992 107.912 139.898 110.91C142.805 113.908 146.748 115.592 150.858 115.593C152.896 115.592 154.914 115.178 156.797 114.373C158.679 113.568 160.389 112.388 161.829 110.901C163.27 109.414 164.412 107.649 165.19 105.707C165.969 103.765 166.368 101.683 166.367 99.5815C166.365 97.6144 166.364 96.253 166.364 96.1695C166.363 90.9062 167.69 85.7333 170.216 81.1597C172.741 76.586 176.377 72.7691 180.767 70.0844C185.156 67.3997 190.148 65.9398 195.251 65.8481C200.353 65.7565 205.391 67.0363 209.868 69.5617C214.346 72.0871 218.109 75.7711 220.787 80.2513C223.465 84.7315 224.967 89.8536 225.143 95.1137C225.32 100.374 224.166 105.591 221.795 110.251C219.423 114.912 215.917 118.856 211.619 121.694L211.625 121.701C211.625 121.701 189.563 136.349 182.837 156.443L182.843 156.445C181.66 160.561 181.06 164.832 181.063 169.126C181.063 170.89 181.164 186.333 181.358 198.866C181.426 203.191 183.14 207.314 186.13 210.347C189.119 213.38 193.145 215.08 197.339 215.079C199.446 215.078 201.533 214.649 203.478 213.814C205.424 212.979 207.19 211.756 208.676 210.214C210.161 208.673 211.336 206.843 212.134 204.832C212.931 202.82 213.335 200.666 213.322 198.493C213.254 187.014 213.218 173.649 213.218 172.679C213.218 160.34 224.759 148.047 234.239 140.03C245.156 130.798 253.012 118.217 256.167 104.026C256.865 101.104 257.25 98.112 257.315 95.1035C257.315 86.8066 255.723 78.5916 252.631 70.932C249.539 63.2724 245.008 56.3194 239.299 50.4738C233.59 44.6282 226.815 40.0055 219.366 36.872C211.917 33.7384 203.941 32.1561 195.896 32.216Z" fill="#0B666A"/>
<path d="M288.677 129.329C296.288 129.329 302.457 122.966 302.457 115.117C302.457 107.268 296.288 100.905 288.677 100.905C281.066 100.905 274.896 107.268 274.896 115.117C274.896 122.966 281.066 129.329 288.677 129.329Z" fill="#2F2E41"/>
<path d="M263.212 275.779H257.581L254.901 253.376H263.213L263.212 275.779Z" fill="#A0616A"/>
<path d="M253.558 274.119H264.419V281.171H246.72C246.72 280.245 246.897 279.328 247.24 278.473C247.584 277.617 248.088 276.839 248.723 276.185C249.358 275.53 250.112 275.01 250.941 274.656C251.771 274.301 252.66 274.119 253.558 274.119Z" fill="#2F2E41"/>
<path d="M306.85 275.779H301.219L298.539 253.376H306.851L306.85 275.779Z" fill="#A0616A"/>
<path d="M297.196 274.119H308.057V281.171H290.358C290.358 280.245 290.535 279.328 290.878 278.473C291.222 277.617 291.726 276.839 292.361 276.185C292.996 275.53 293.75 275.01 294.579 274.656C295.409 274.301 296.298 274.119 297.196 274.119Z" fill="#2F2E41"/>
<path d="M286.583 129.413C292.813 129.413 297.865 124.203 297.865 117.777C297.865 111.351 292.813 106.141 286.583 106.141C280.352 106.141 275.3 111.351 275.3 117.777C275.3 124.203 280.352 129.413 286.583 129.413Z" fill="#A0616A"/>
<path d="M293.307 166.949L298.355 154.987C299.581 152.181 299.933 149.052 299.361 146.031C298.789 143.01 297.322 140.247 295.163 138.122C294.719 137.67 294.248 137.247 293.752 136.857C291.262 134.847 288.192 133.752 285.03 133.745C282.903 133.753 280.804 134.235 278.874 135.156C278.709 135.232 278.548 135.313 278.383 135.393C278.066 135.55 277.754 135.72 277.45 135.895C275.473 137.066 273.79 138.7 272.537 140.665C271.284 142.631 270.497 144.872 270.238 147.208L268.011 166.461C267.45 167.972 247.459 222.547 254.451 264.213C254.525 264.658 254.736 265.067 255.051 265.38C255.367 265.692 255.771 265.893 256.205 265.952L263.293 266.946C263.811 267.019 264.336 266.888 264.763 266.577C265.19 266.267 265.487 265.801 265.595 265.274L277.487 206.81C277.561 206.447 277.751 206.119 278.027 205.881C278.302 205.642 278.648 205.505 279.007 205.493C279.367 205.48 279.721 205.592 280.011 205.811C280.302 206.03 280.513 206.344 280.611 206.701L297.414 268.183C297.533 268.63 297.792 269.024 298.149 269.304C298.507 269.585 298.944 269.737 299.393 269.737C299.527 269.736 299.661 269.723 299.793 269.699L308.452 267.979C308.955 267.882 309.405 267.595 309.714 267.173C310.022 266.752 310.167 266.226 310.119 265.701C308.847 251.067 302.085 177.765 293.307 166.949Z" fill="#2F2E41"/>
<path d="M242.738 127.46C242.659 128.152 242.729 128.853 242.942 129.514C243.155 130.175 243.505 130.78 243.969 131.286C244.433 131.792 244.999 132.187 245.627 132.443C246.255 132.699 246.93 132.81 247.604 132.768L253.91 148.397L258.681 141.105L251.961 127.38C251.817 126.217 251.265 125.149 250.409 124.377C249.553 123.606 248.452 123.185 247.315 123.195C246.178 123.205 245.084 123.645 244.24 124.431C243.397 125.217 242.862 126.295 242.738 127.46Z" fill="#A0616A"/>
<path d="M285.957 182.687C286.628 182.604 287.272 182.371 287.846 182.004C288.42 181.636 288.908 181.144 289.277 180.56C289.646 179.977 289.887 179.317 289.982 178.628C290.077 177.938 290.024 177.236 289.828 176.57L303.096 166.603L295.108 163.518L283.733 173.455C282.669 173.87 281.79 174.673 281.263 175.712C280.735 176.75 280.595 177.952 280.869 179.09C281.143 180.228 281.813 181.223 282.75 181.886C283.688 182.549 284.829 182.834 285.957 182.687Z" fill="#A0616A"/>
<path d="M264.327 158.818C263.818 158.817 263.311 158.765 262.812 158.663C261.605 158.427 260.473 157.887 259.516 157.093C258.559 156.298 257.806 155.273 257.324 154.108L248.489 142.997C248.302 142.762 248.166 142.489 248.09 142.195C248.014 141.902 248 141.595 248.048 141.295C248.096 140.996 248.206 140.71 248.37 140.458C248.534 140.205 248.749 139.992 248.999 139.832L255.285 135.819C255.517 135.671 255.775 135.572 256.045 135.527C256.314 135.482 256.59 135.493 256.855 135.559C257.12 135.624 257.371 135.744 257.591 135.909C257.812 136.075 257.998 136.285 258.14 136.525L264.367 147.106L276.292 138.016C277.242 137.503 278.339 137.359 279.383 137.611C280.427 137.862 281.348 138.493 281.978 139.388C282.609 140.282 282.906 141.38 282.816 142.482C282.726 143.584 282.254 144.616 281.487 145.389L269.585 156.586C268.186 158.016 266.296 158.818 264.327 158.818Z" fill="#2F2E41"/>
<path d="M296.55 175.528C296.534 175.528 296.518 175.528 296.502 175.527C296.212 175.52 295.927 175.45 295.665 175.322C295.403 175.194 295.17 175.01 294.981 174.783L289.392 168.059C289.202 167.83 289.061 167.562 288.979 167.273C288.896 166.983 288.874 166.679 288.914 166.38C288.954 166.082 289.055 165.795 289.21 165.539C289.366 165.284 289.572 165.065 289.815 164.898L300.28 157.703L290.8 145.948C290.248 145 290.046 143.879 290.23 142.79C290.414 141.7 290.971 140.716 291.801 140.015C292.631 139.315 293.677 138.946 294.749 138.976C295.82 139.005 296.846 139.432 297.638 140.177L309.16 151.79C310.067 152.644 310.759 153.713 311.177 154.904C311.596 156.095 311.728 157.372 311.562 158.628C311.395 159.883 310.937 161.078 310.224 162.11C309.512 163.141 308.567 163.98 307.472 164.552L298.055 174.858C297.861 175.069 297.628 175.238 297.369 175.353C297.111 175.468 296.832 175.527 296.55 175.528Z" fill="#2F2E41"/>
<path d="M283.714 150.751C283.624 150.751 283.535 150.745 283.446 150.734C283.057 150.685 282.689 150.522 282.387 150.264C282.085 150.007 281.861 149.665 281.741 149.28L277.542 136.001C277.437 135.665 277.453 135.302 277.587 134.977C277.722 134.653 277.966 134.39 278.274 134.237L278.41 134.17C278.534 134.11 278.656 134.05 278.781 133.992C280.739 133.056 282.871 132.567 285.03 132.56C287.832 132.566 290.572 133.415 292.913 135.003C293.227 135.219 293.446 135.553 293.523 135.933C293.601 136.314 293.53 136.71 293.327 137.038L285.449 149.766C285.264 150.068 285.008 150.317 284.705 150.49C284.401 150.662 284.06 150.752 283.714 150.751Z" fill="#E6E6E6"/>
<path d="M299.541 108.772C302.032 108.772 304.051 106.69 304.051 104.122C304.051 101.553 302.032 99.4712 299.541 99.4712C297.051 99.4712 295.032 101.553 295.032 104.122C295.032 106.69 297.051 108.772 299.541 108.772Z" fill="#2F2E41"/>
<path d="M284.083 99.01C280.916 99.01 277.878 100.308 275.638 102.618C273.399 104.928 272.14 108.061 272.14 111.327V116.538H278.355L281.327 111.327L282.219 116.538H301.079L296.026 111.327C296.026 108.061 294.768 104.928 292.528 102.618C290.289 100.308 287.251 99.01 284.083 99.01Z" fill="#2F2E41"/>
<path d="M301.859 100.936C302.358 99.3282 303.39 97.9529 304.775 97.0522C306.159 96.1514 307.807 95.783 309.429 96.0115C312.303 96.507 314.575 98.8893 315.929 101.55C317.283 104.211 317.908 107.189 318.818 110.043C319.728 112.898 321.019 115.768 323.316 117.616C325.614 119.463 329.14 119.965 331.396 118.064C331.138 120.045 330.283 121.892 328.952 123.344C327.62 124.797 325.88 125.78 323.976 126.156C322.073 126.533 320.103 126.282 318.345 125.44C316.587 124.599 315.131 123.208 314.181 121.466C312.99 119.281 312.683 116.72 312.33 114.241C311.977 111.761 311.518 109.196 310.097 107.163C308.675 105.13 306.014 103.803 303.756 104.728L301.859 100.936Z" fill="#2F2E41"/>
<path d="M155.235 108.031C151.124 108.031 147.182 106.346 144.275 103.348C141.368 100.35 139.735 96.2841 139.735 92.0443C139.735 89.1527 139.737 86.9419 139.741 86.6275C139.871 76.7231 142.29 66.9937 146.796 58.2462C139.393 68.6983 135.322 81.2649 135.147 94.2073C135.143 94.5217 135.141 96.7326 135.141 99.6242C135.142 103.864 136.775 107.93 139.681 110.928C142.588 113.926 146.531 115.611 150.642 115.611C154.02 115.61 157.305 114.471 159.998 112.369C162.692 110.266 164.646 107.314 165.565 103.961C162.727 106.586 159.047 108.036 155.235 108.031Z" fill="#3F3D56"/>
<path d="M196.947 65.9018C201.699 66.1359 206.326 67.5561 210.429 70.0404C214.532 72.5247 217.989 75.9989 220.503 80.1647C223.018 84.3305 224.514 89.0635 224.864 93.9572C225.215 98.8509 224.408 103.759 222.514 108.26C225.254 104.942 227.268 101.053 228.418 96.8585C229.569 92.6643 229.829 88.2636 229.181 83.9563C228.532 79.649 226.992 75.5365 224.663 71.8991C222.334 68.2618 219.272 65.1851 215.686 62.8788C212.099 60.5725 208.073 59.0908 203.881 58.5348C199.689 57.9788 195.43 58.3615 191.395 59.6569C187.36 60.9522 183.642 63.1298 180.497 66.041C177.351 68.9523 174.852 72.5288 173.168 76.5268C176.078 72.9962 179.735 70.202 183.858 68.3599C187.981 66.5177 192.459 65.6767 196.947 65.9018Z" fill="#3F3D56"/>
<path d="M201.716 207.517C197.522 207.518 193.496 205.818 190.506 202.785C187.517 199.752 185.803 195.629 185.735 191.304C185.54 178.771 185.44 163.329 185.44 161.564C185.437 157.271 186.036 152.999 187.219 148.883L187.213 148.881C187.912 146.815 188.755 144.804 189.737 142.865C186.723 147.007 184.324 151.59 182.62 156.461L182.626 156.463C181.443 160.579 180.844 164.85 180.846 169.144C180.846 170.909 180.947 186.351 181.141 198.884C181.209 203.209 182.923 207.332 185.913 210.365C188.902 213.398 192.928 215.098 197.122 215.097C200.58 215.096 203.944 213.939 206.711 211.8C209.477 209.66 211.496 206.653 212.465 203.23C209.527 205.993 205.692 207.523 201.716 207.517Z" fill="#3F3D56"/>
<path d="M58.1264 275.995L63.7575 275.994L66.4369 253.592L58.125 253.592L58.1264 275.995Z" fill="#FFB8B8"/>
<path d="M74.6186 281.387L56.9196 281.388L56.9193 274.335L67.7801 274.335C69.5937 274.335 71.3331 275.078 72.6155 276.4C73.898 277.723 74.6186 279.517 74.6186 281.387Z" fill="#2F2E41"/>
<path d="M37.915 275.995L43.5462 275.994L46.2256 253.592L37.9137 253.592L37.915 275.995Z" fill="#FFB8B8"/>
<path d="M54.4073 281.387L36.7083 281.388L36.708 274.335L47.5688 274.335C49.3824 274.335 51.1217 275.078 52.4042 276.4C53.6867 277.723 54.4072 279.517 54.4073 281.387Z" fill="#2F2E41"/>
<path d="M42.8362 269.105L37.3355 268.806C37.0518 268.791 36.774 268.718 36.518 268.591C36.262 268.464 36.033 268.286 35.8442 268.067C35.6554 267.848 35.5106 267.593 35.4182 267.316C35.3258 267.039 35.2876 266.746 35.3058 266.453L41.8803 191.381L72.1564 199.807L75.0734 198.986L65.9515 265.445C65.8738 265.945 65.6331 266.403 65.2691 266.742C64.9051 267.082 64.4397 267.284 63.9496 267.314L58.0199 267.599C57.7234 267.616 57.4268 267.569 57.1486 267.462C56.8705 267.354 56.617 267.189 56.4041 266.975C56.1912 266.762 56.0235 266.505 55.9118 266.221C55.8 265.938 55.7465 265.633 55.7547 265.327L56.8291 225.44C56.8341 225.255 56.772 225.075 56.6549 224.936C56.5379 224.796 56.3744 224.707 56.1967 224.686C56.019 224.664 55.8399 224.712 55.6948 224.82C55.5498 224.928 55.4491 225.088 55.4128 225.269L45.0513 267.343C44.9535 267.842 44.6909 268.291 44.3082 268.613C43.9254 268.935 43.4463 269.11 42.9525 269.108C42.914 269.108 42.8752 269.107 42.8362 269.105Z" fill="#2F2E41"/>
<path d="M59.1374 129.957C65.3683 129.957 70.4195 124.747 70.4195 118.321C70.4195 111.895 65.3683 106.686 59.1374 106.686C52.9065 106.686 47.8553 111.895 47.8553 118.321C47.8553 124.747 52.9065 129.957 59.1374 129.957Z" fill="#FFB8B8"/>
<path d="M40.3535 152.506L41.594 180.109L42.0425 190.152C42.0604 190.589 42.2043 191.011 42.4558 191.363C42.7074 191.716 43.0552 191.983 43.4547 192.13L72.5479 202.999C72.783 203.09 73.032 203.135 73.2827 203.132C73.5693 203.134 73.8531 203.076 74.1174 202.961C74.3817 202.847 74.621 202.679 74.821 202.467C75.0209 202.256 75.1774 202.005 75.2812 201.729C75.385 201.454 75.4339 201.159 75.4249 200.864L74.2322 151.231C74.1539 147.159 72.7004 143.243 70.1225 140.158C67.5445 137.072 64.0036 135.011 60.1101 134.33C59.8287 134.285 59.5424 134.241 59.2561 134.202C56.8419 133.893 54.3912 134.133 52.0767 134.906C49.7621 135.678 47.6399 136.965 45.8592 138.674C44.0154 140.423 42.5666 142.569 41.6152 144.959C40.6639 147.349 40.2332 149.925 40.3535 152.506Z" fill="#CCCCCC"/>
<path d="M86.4457 197.491C85.7576 197.271 85.1289 196.888 84.6099 196.373C84.0908 195.857 83.6957 195.224 83.4561 194.523C83.2166 193.823 83.1391 193.074 83.23 192.337C83.3209 191.599 83.5776 190.894 83.9796 190.278L74.1137 176.748L82.6274 176.204L90.6909 189.136C91.5542 189.824 92.1549 190.804 92.3877 191.904C92.6205 193.003 92.4705 194.152 91.964 195.149C91.4575 196.146 90.627 196.927 89.6179 197.355C88.6089 197.783 87.4858 197.832 86.4457 197.491Z" fill="#FFB8B8"/>
<path d="M79.509 187.829C79.2476 187.72 79.0099 187.558 78.8095 187.353C78.6092 187.149 78.4502 186.905 78.3418 186.636L63.4781 150.114C63.1864 149.398 63.0343 148.631 63.0303 147.855C63.0264 147.08 63.1707 146.311 63.455 145.592C63.7393 144.874 64.1581 144.221 64.6874 143.67C65.2166 143.118 65.8461 142.68 66.5396 142.38C67.2332 142.08 67.9774 141.923 68.7296 141.92C69.4817 141.916 70.2272 142.066 70.9234 142.36C71.6196 142.653 72.2528 143.086 72.7868 143.632C73.3209 144.178 73.7454 144.828 74.0359 145.543L88.8996 182.067C89.1193 182.608 89.1217 183.217 88.9064 183.761C88.6911 184.304 88.2756 184.737 87.751 184.965L81.1523 187.821C80.8925 187.935 80.6135 187.994 80.3314 187.995C80.0494 187.997 79.7698 187.94 79.509 187.829Z" fill="#CCCCCC"/>
<path d="M55.5101 186.541L69.7863 158.349C70.0616 157.807 70.5342 157.4 71.1004 157.217C71.6666 157.033 72.2802 157.089 72.8065 157.372L93.5284 168.533C94.0541 168.817 94.4491 169.305 94.6268 169.888C94.8045 170.472 94.7503 171.105 94.4762 171.648L80.2 199.84C79.9247 200.382 79.4521 200.789 78.8859 200.973C78.3197 201.156 77.7061 201.1 77.1798 200.817L56.458 189.656C55.9323 189.372 55.5372 188.885 55.3595 188.301C55.1818 187.717 55.236 187.084 55.5101 186.541Z" fill="#3F3D56"/>
<path d="M65.0843 173.661C64.8305 172.966 64.4226 172.341 63.8931 171.837C63.3637 171.333 62.7274 170.964 62.0349 170.758C61.3425 170.553 60.6131 170.518 59.905 170.655C59.1969 170.792 58.5297 171.098 57.9566 171.548L44.2779 162.19L44.2546 170.987L57.2477 178.525C57.9649 179.373 58.9488 179.934 60.0267 180.108C61.1047 180.283 62.2078 180.061 63.1427 179.481C64.0777 178.9 64.7846 177.999 65.1397 176.935C65.4947 175.871 65.4751 174.712 65.0843 173.661Z" fill="#FFB8B8"/>
<path d="M47.7898 175.639L36.6107 166.507C35.4014 166.088 34.3086 165.373 33.4263 164.422C32.5439 163.472 31.8983 162.315 31.5449 161.051C31.1915 159.787 31.1409 158.453 31.3973 157.164C31.6537 155.876 32.2095 154.67 33.0171 153.652L43.1673 139.932C43.8727 139.043 44.8647 138.446 45.962 138.249C47.0593 138.052 48.1886 138.27 49.1435 138.861C50.0984 139.452 50.8151 140.378 51.1625 141.469C51.51 142.561 51.465 143.745 51.0358 144.804L43.0046 158.353L54.8071 164.127C55.0816 164.261 55.3253 164.454 55.5221 164.692C55.719 164.931 55.8645 165.21 55.9491 165.511C56.0337 165.812 56.0554 166.128 56.0128 166.438C55.9702 166.748 55.8643 167.045 55.702 167.31L50.9377 175.086C50.7767 175.349 50.564 175.573 50.3134 175.746C50.0628 175.918 49.78 176.034 49.4831 176.086C49.4713 176.088 49.4595 176.09 49.4476 176.092C49.1559 176.138 48.8583 176.121 48.5732 176.043C48.288 175.965 48.0214 175.828 47.7898 175.639Z" fill="#CCCCCC"/>
<path d="M50.6124 126.112C50.564 125.966 50.5486 125.811 50.5675 125.658C50.5864 125.505 50.639 125.358 50.7213 125.229C50.8036 125.1 50.9134 124.992 51.0423 124.914C51.1713 124.836 51.3159 124.789 51.4651 124.777C51.7707 124.794 52.0697 124.875 52.3441 125.014C52.6186 125.154 52.8627 125.35 53.0618 125.589C53.4701 126.075 53.9455 126.496 54.4726 126.839C55.0183 127.122 55.7585 127.082 56.0696 126.541C56.3618 126.033 56.1616 125.353 55.9847 124.763C55.5347 123.262 55.2828 121.705 55.2361 120.134C55.1851 118.381 55.4249 116.552 56.3659 115.185C57.5804 113.42 59.752 112.75 61.8071 112.799C63.8622 112.847 65.884 113.502 67.9197 113.915C68.6225 114.058 69.4485 114.131 69.9186 113.569C70.4184 112.972 70.2348 112.005 70.0222 111.199C69.4706 109.106 68.8853 106.942 67.6036 105.252C66.2178 103.496 64.2382 102.347 62.0635 102.036C59.9757 101.769 57.8563 102.017 55.8796 102.76C52.6591 103.806 49.8252 105.842 47.757 108.595C45.6251 111.523 44.7038 115.202 45.1947 118.828C45.6744 121.987 47.2971 124.84 49.7358 126.813L50.6124 126.112Z" fill="#2F2E41"/>
<path d="M193.504 276.087C190.502 274.739 187.846 272.689 185.744 270.101C183.641 267.512 182.151 264.455 181.391 261.171C180.63 257.887 180.621 254.465 181.362 251.176C182.103 247.887 183.576 244.821 185.663 242.22C183.243 244.042 181.227 246.374 179.747 249.062C178.268 251.749 177.36 254.73 177.084 257.807C176.807 260.884 177.168 263.986 178.143 266.908C179.118 269.83 180.684 272.505 182.738 274.755C184.792 277.005 187.286 278.779 190.055 279.959C192.825 281.139 195.805 281.697 198.8 281.598C201.795 281.499 204.735 280.744 207.425 279.384C210.115 278.023 212.494 276.088 214.404 273.706C211.425 275.952 207.929 277.353 204.262 277.77C200.595 278.188 196.886 277.608 193.504 276.087Z" fill="#3F3D56"/>
</svg>
