<svg width="128" height="128" viewBox="0 0 128 128" fill="none" xmlns="http://www.w3.org/2000/svg">
<rect width="128" height="128" rx="15" fill="#121212"/>
<path fill-rule="evenodd" clip-rule="evenodd" d="M78.7369 41.0913V41L86.1712 41C89.8485 41 92.3688 42.4786 94.0554 44.6157C95.8326 46.8676 96.8305 50.0692 96.7721 53.472C96.7137 56.8692 95.6087 60.0815 93.6773 62.3634C91.8323 64.5431 89.0606 66.0986 85 66.0986H80.5V70.5986V75.5V81H89.5V75.5V74.6617C94.0917 73.7364 97.8223 71.3968 100.547 68.1779C104.027 64.0664 105.683 58.754 105.771 53.6266C105.859 48.5048 104.389 43.1817 101.12 39.0402C97.7613 34.7838 92.6583 32 86.1712 32L74.2369 32L69.7369 32V36.5V36.6126V36.7248V36.8366V36.948V37.059V37.1696V37.2798V37.3896V37.499V37.608V37.7166V37.8249V37.9327V38.0402V38.1473V38.254V38.3603V38.4662V38.5718V38.677V38.7818V38.8862V38.9902V39.0939V39.1972V39.3002V39.4027V39.505V39.6068V39.7083V39.8094V39.9101V40.0105V40.1105V40.2102V40.3095V40.4085V40.507V40.6053V40.7032V40.8007V40.8979V40.9948V41.0913V41.1874V41.2832V41.3787V41.4738V41.5686V41.663V41.7572V41.8509V41.9444V42.0375V42.1302V42.2227V42.3148V42.4066V42.498V42.5891V42.6799V42.7704V42.8606V42.9504V43.0399V43.1291V43.218V43.3066V43.3948V43.4828V43.5704V43.6577V43.7447V43.8314V43.9178V44.0039V44.0897V44.1752V44.2604V44.3452V44.4298V44.5141V44.5981V44.6818V44.7652V44.8483V44.9311V45.0137V45.0959V45.1779V45.2595V45.3409V45.422V45.5028V45.5834V45.6636V45.7436V45.8233V45.9028V45.9819V46.0608V46.1394V46.2178V46.2958V46.3736V46.4512V46.5285V46.6055V46.6822V46.7587V46.835V46.9109V46.9866V47.0621V47.1373V47.2123V47.287V47.3614V47.4356V47.5096V47.5833V47.6568V47.73V47.803V47.8757V47.9482V48.0205V48.0925V48.1643V48.2358V48.3071V48.3782V48.4491V48.5197V48.5901V48.6602V48.7302V48.7999V48.8694V48.9387V49.0077V49.0766V49.1452V49.2136V49.2818V49.3497V49.4175V49.4851V49.5524V49.6195V49.6864V49.7532V49.8197V49.886V49.9521V50.018V50.0837V50.1492V50.2145V50.2796V50.3445V50.4093V50.4738V50.5381V50.6023V50.6663V50.7301V50.7937V50.8571V50.9203V50.9833V51.0462V51.1089V51.1714V51.2337V51.2959V51.3579V51.4197V51.4814V51.5428V51.6041V51.6653V51.7263V51.7871V51.8477V51.9082V51.9685V52.0287V52.0887V52.1485V52.2082V52.2678V52.3272V52.3864V52.4455V52.5044V52.5632V52.6219V52.6804V52.7387V52.797V52.855V52.913V52.9708V53.0284V53.0859V53.1433V53.2006V53.2577V53.3147V53.3716V53.4283V53.4849V53.5414V53.5978V53.654V53.7101V53.7661V53.822V53.8778V53.9334V53.9889V54.0444V54.0997V54.1549V54.2099V54.2649V54.3198V54.3745V54.4292V54.4838V54.5382V54.5926V54.6468V54.701V54.755V54.809V54.8629V54.9166V54.9703V55.0239V55.0774V55.1309V55.1842V55.2374V55.2906V55.3437V55.3967V55.4496V55.5024V55.5552V55.6079V55.6605V55.7131V55.7655V55.8179V55.8703V55.9225V55.9747V56.0269V56.0789V56.1309V56.1829V56.2348V56.2866V56.3384V56.3901V56.4417V56.4933V56.5449V56.5964V56.6478V56.6992V56.7506V56.8019V56.8532V56.9044V56.9556V57.0067V57.0578V57.1088V57.1599V57.2109V57.2618V57.3127V57.3636V57.4145V57.4653V57.5161V57.5669V57.6177V57.6684V57.7191V57.7698V57.8204V57.8711V57.9217V57.9723V58.0229V58.0735V58.1241V58.1747V58.2252V58.2758V58.3263V58.3769V58.4274V58.4779V58.5284V58.579V58.6295V58.68V58.7306V58.7811V58.8316V58.8822V58.9328V58.9833V59.0339V59.0845V59.1351V59.1857V59.2364V59.2871V59.3377V59.3884V59.4392V59.4899V59.5407V59.5915V59.6423V59.6932V59.744V59.7949V59.8459V59.8969V59.9479V59.9989V60.05V60.1012V60.1523V60.2035V60.2548V60.3061V60.3574V60.4088V60.4602V60.5117V60.5633V60.6149V60.6665V60.7182V60.77V60.8218V60.8736V60.9256V60.9775V61.0296V61.0817V61.1339V61.1861V61.2384V61.2908V61.3433V61.3958V61.4484V61.5011V61.5538V61.6066V61.6595V61.7125V61.7656V61.8187V61.872V61.9253V61.9787V62.0321V62.0857V62.1394V62.1931V62.247V62.3009V62.355V62.4091V62.4633V62.5176V62.5721V62.6266V62.6812V62.736V62.7908V62.8457V62.9008V62.956V63.0112V63.0666V63.1221V63.1777V63.2335V63.2893V63.3453V63.4014V63.4576V63.5139V63.5704V63.6269V63.6836V63.7405V63.7974V63.8545V63.9117V63.9691V64.0266V64.0842V64.142V64.1999V64.2579V64.3161V64.3744V64.4329V64.4915V64.5502V64.6091V64.6682V64.7274V64.7867V64.8462V64.9059V64.9657V65.0257V65.0858V65.1461V65.2065V65.2671V65.3279V65.3888V65.4499V65.5112V65.5726V65.6342V65.696V65.7579V65.82V65.8823V65.9448V66.0074V66.0702V66.1332V66.1964V66.2598V66.3233V66.3871V66.451V66.5151V66.5794V66.6439V66.7085V66.7734V66.8385V66.9037V66.9692V67.0348V67.1007V67.1667V67.233V67.2995V67.3661V67.433V67.5001V67.5673V67.6348V67.7025V67.7704V67.8386V67.9069V67.9755V68.0443V68.1133V68.1825V68.2519V68.3216V68.3914V68.4616V68.5319V68.6025V68.6732V68.7443V68.8155V68.887V68.9587V69.0307V69.1029V69.1753V69.248V69.3209V69.3941V69.4675V69.5411V69.615V69.6891V69.7635V69.8382V69.913V69.9882V70.0636V70.1392V70.2151V70.2913V70.3677V70.4444V70.5214V70.5986C69.7369 74.7986 68.2068 78.9999 66.0305 82.1138C63.6736 85.4862 61.4389 86.4476 60.5978 86.4476H60.5512H60.5047H60.4583H60.4119H60.3656H60.3194H60.2732H60.2271H60.1811H60.1351H60.0892H60.0434H59.9977H59.952H59.9064H59.8608H59.8153H59.7699H59.7245H59.6793H59.634H59.5889H59.5438H59.4988H59.4538H59.4089H59.3641H59.3193H59.2746H59.2299H59.1854H59.1408H59.0964H59.052H59.0077H58.9634H58.9192H58.875H58.8309H58.7869H58.7429H58.699H58.6552H58.6114H58.5677H58.524H58.4804H58.4368H58.3933H58.3499H58.3065H58.2632H58.2199H58.1767H58.1336H58.0905H58.0474H58.0045H57.9615H57.9187H57.8758H57.8331H57.7904H57.7477H57.7051H57.6626H57.6201H57.5776H57.5353H57.4929H57.4506H57.4084H57.3662H57.3241H57.282H57.24H57.198H57.1561H57.1143H57.0724H57.0307H56.9889H56.9473H56.9056H56.8641H56.8225H56.7811H56.7396H56.6982H56.6569H56.6156H56.5744H56.5332H56.492H56.4509H56.4099H56.3689H56.3279H56.287H56.2461H56.2053H56.1645H56.1237H56.0831H56.0424H56.0018H55.9612H55.9207H55.8802H55.8398H55.7994H55.759H55.7187H55.6784H55.6382H55.598H55.5578H55.5177H55.4776H55.4376H55.3976H55.3577H55.3177H55.2779H55.238H55.1982H55.1585H55.1187H55.079H55.0394H54.9998H54.9602H54.9206H54.8811H54.8417H54.8022H54.7628H54.7235H54.6841H54.6448H54.6056H54.5663H54.5271H54.488H54.4488H54.4097H54.3707H54.3316H54.2926H54.2537H54.2147H54.1758H54.137H54.0981H54.0593H54.0205H53.9818H53.943H53.9043H53.8657H53.827H53.7884H53.7498H53.7113H53.6728H53.6343H53.5958H53.5573H53.5189H53.4805H53.4422H53.4038H53.3655H53.3272H53.289H53.2507H53.2125H53.1743H53.1362H53.098H53.0599H53.0218H52.9837H52.9457H52.9077H52.8697H52.8317H52.7937H52.7558H52.7179H52.68H52.6421H52.6043H52.5664H52.5286H52.4908H52.453H52.4153H52.3775H52.3398H52.3021H52.2644H52.2268H52.1891H52.1515H52.1139H52.0763H52.0387H52.0011H51.9636H51.9261H51.8885H51.851H51.8136H51.7761H51.7386H51.7012H51.6638H51.6263H51.5889H51.5515H51.5142H51.4768H51.4395H51.4021H51.3648H51.3275H51.2902H51.2529H51.2156H51.1783H51.1411H51.1038H51.0666H51.0293H50.9921H50.9549H50.9177H50.8805H50.8433H50.8061H50.7689H50.7318H50.6946H50.6575H50.6203H50.5832H50.546H50.5089H50.4718H50.4347H50.3975H50.3604H50.3233H50.2862H50.2491H50.212H50.1749H50.1379H50.1008H50.0637H50.0266H49.9895H49.9525H49.9154H49.8783H49.8413H49.8042H49.7671H49.73H49.693H49.6559H49.6188H49.5818H49.5447H49.5076H49.4705H49.4335H49.3964H49.3593H49.3222H49.2851H49.248H49.2109H49.1739H49.1367H49.0996H49.0625H49.0254H48.9883H48.9512H48.914H48.8769H48.8398H48.8026H48.7655H48.7283H48.6911H48.654H48.6168H48.5796H48.5424H48.5052H48.4679H48.4307H48.3935H48.3562H48.319H48.2817H48.2444H48.2072H48.1699H48.1326H48.0952H48.0579H48.0206H47.9832H47.9458H47.9085H47.8711H47.8337H47.7963H47.7588H47.7214H47.6839H47.6464H47.6089H47.5714H47.5339H47.4964H47.4588H47.4213H47.3837H47.3461H47.3085H47.2708H47.2332H47.1955H47.1578H47.1201H47.0824H47.0447H47.0069H46.9691H46.9313H46.8935H46.8557H46.8178H46.7799H46.742H46.7041H46.6662H46.6282H46.5902H46.5522H46.5142H46.4761H46.438H46.3999H46.3618H46.3237H46.2855H46.2473H46.2091H46.1709H46.1326H46.0943H46.056H46.0176H45.9793H45.9409H45.9024H45.864H45.8255H45.787H45.7485H45.7099H45.6713H45.6327H45.5941H45.5554H45.5167H45.478H45.4392H45.4004H45.3616H45.3227H45.2839H45.2449H45.206H45.167H45.128H45.089H45.0499H45.0108H44.9717H44.9325H44.8933H44.854H44.8148H44.7755H44.7361H44.6968H44.6573H44.6179H44.5784H44.5389H44.4994H44.4598H44.4201H44.3805H44.3408H44.3011H44.2613H44.2215H44.1816H44.1417H44.1018H44.0618H44.0218H43.9818H43.9417H43.9016H43.8614H43.8212H43.781H43.7407H43.7004H43.66H43.6196H43.5791H43.5387H43.4981H43.4575H43.4169H43.3762H43.3355H43.2948H43.254H43.2132H43.1723H43.1313H43.0904H43.0493H43.0083H42.9672H42.926H42.8848H42.8435H42.8023H42.7609H42.7195H42.6781H42.6366H42.595H42.5535H42.5118H42.4701H42.4284H42.3866H42.3448H42.3029H42.261H42.219H42.177H42.1349H42.0927H42.0506H42.0083H41.966H41.9237H41.8813H41.8388H41.7963H41.7538H41.7112H41.6685H41.6258H41.583H41.5402H41.4973H41.4543H41.4114H41.3683H41.3252H41.282H41.2388H41.1955H41.1522H41.1088H41.0654H41.0219H40.9783H40.9347H40.891H40.8472H40.8034H40.7596H40.7157H40.6717H40.6276H40.5835H40.5394H40.4951H40.4509H40.4065H40.3621H40.3176H40.2731H40.2285H40.1838H40.1391C39.9338 86.4476 39.2531 86.3323 38.1528 85.5578C37.0969 84.8145 35.921 83.6437 34.8148 82.0861C32.5835 78.9442 31 74.7503 31 70.5986V36.5002C31 34.0149 28.9853 32.0002 26.5 32.0002C24.0147 32.0002 22 34.0149 22 36.5002V70.5986C22 76.8964 24.3378 82.8769 27.4769 87.2972C29.0559 89.5206 30.9274 91.4778 32.9723 92.9173C34.9728 94.3255 37.4462 95.4476 40.1391 95.4476H40.1838H40.2285H40.2731H40.3176H40.3621H40.4065H40.4509H40.4951H40.5394H40.5835H40.6276H40.6717H40.7157H40.7596H40.8034H40.8472H40.891H40.9347H40.9783H41.0219H41.0654H41.1088H41.1522H41.1955H41.2388H41.282H41.3252H41.3683H41.4114H41.4543H41.4973H41.5402H41.583H41.6258H41.6685H41.7112H41.7538H41.7963H41.8388H41.8813H41.9237H41.966H42.0083H42.0506H42.0927H42.1349H42.177H42.219H42.261H42.3029H42.3448H42.3866H42.4284H42.4701H42.5118H42.5535H42.595H42.6366H42.6781H42.7195H42.7609H42.8023H42.8435H42.8848H42.926H42.9672H43.0083H43.0493H43.0904H43.1313H43.1723H43.2132H43.254H43.2948H43.3355H43.3762H43.4169H43.4575H43.4981H43.5387H43.5791H43.6196H43.66H43.7004H43.7407H43.781H43.8212H43.8614H43.9016H43.9417H43.9818H44.0218H44.0618H44.1018H44.1417H44.1816H44.2215H44.2613H44.3011H44.3408H44.3805H44.4201H44.4598H44.4994H44.5389H44.5784H44.6179H44.6573H44.6968H44.7361H44.7755H44.8148H44.854H44.8933H44.9325H44.9717H45.0108H45.0499H45.089H45.128H45.167H45.206H45.2449H45.2839H45.3227H45.3616H45.4004H45.4392H45.478H45.5167H45.5554H45.5941H45.6327H45.6713H45.7099H45.7485H45.787H45.8255H45.864H45.9024H45.9409H45.9793H46.0176H46.056H46.0943H46.1326H46.1709H46.2091H46.2473H46.2855H46.3237H46.3618H46.3999H46.438H46.4761H46.5142H46.5522H46.5902H46.6282H46.6662H46.7041H46.742H46.7799H46.8178H46.8557H46.8935H46.9313H46.9691H47.0069H47.0447H47.0824H47.1201H47.1578H47.1955H47.2332H47.2708H47.3085H47.3461H47.3837H47.4213H47.4588H47.4964H47.5339H47.5714H47.6089H47.6464H47.6839H47.7214H47.7588H47.7963H47.8337H47.8711H47.9085H47.9458H47.9832H48.0206H48.0579H48.0952H48.1326H48.1699H48.2072H48.2444H48.2817H48.319H48.3562H48.3935H48.4307H48.4679H48.5052H48.5424H48.5796H48.6168H48.654H48.6911H48.7283H48.7655H48.8026H48.8398H48.8769H48.914H48.9512H48.9883H49.0254H49.0625H49.0996H49.1367H49.1739H49.2109H49.248H49.2851H49.3222H49.3593H49.3964H49.4335H49.4705H49.5076H49.5447H49.5818H49.6188H49.6559H49.693H49.73H49.7671H49.8042H49.8413H49.8783H49.9154H49.9525H49.9895H50.0266H50.0637H50.1008H50.1379H50.1749H50.212H50.2491H50.2862H50.3233H50.3604H50.3975H50.4347H50.4718H50.5089H50.546H50.5832H50.6203H50.6575H50.6946H50.7318H50.7689H50.8061H50.8433H50.8805H50.9177H50.9549H50.9921H51.0293H51.0666H51.1038H51.1411H51.1783H51.2156H51.2529H51.2902H51.3275H51.3648H51.4021H51.4395H51.4768H51.5142H51.5515H51.5889H51.6263H51.6638H51.7012H51.7386H51.7761H51.8136H51.851H51.8885H51.9261H51.9636H52.0011H52.0387H52.0763H52.1139H52.1515H52.1891H52.2268H52.2644H52.3021H52.3398H52.3775H52.4153H52.453H52.4908H52.5286H52.5664H52.6043H52.6421H52.68H52.7179H52.7558H52.7937H52.8317H52.8697H52.9077H52.9457H52.9837H53.0218H53.0599H53.098H53.1362H53.1743H53.2125H53.2507H53.289H53.3272H53.3655H53.4038H53.4422H53.4805H53.5189H53.5573H53.5958H53.6343H53.6728H53.7113H53.7498H53.7884H53.827H53.8657H53.9043H53.943H53.9818H54.0205H54.0593H54.0981H54.137H54.1758H54.2147H54.2537H54.2926H54.3316H54.3707H54.4097H54.4488H54.488H54.5271H54.5663H54.6056H54.6448H54.6841H54.7235H54.7628H54.8022H54.8417H54.8811H54.9206H54.9602H54.9998H55.0394H55.079H55.1187H55.1585H55.1982H55.238H55.2779H55.3177H55.3577H55.3976H55.4376H55.4776H55.5177H55.5578H55.598H55.6382H55.6784H55.7187H55.759H55.7994H55.8398H55.8802H55.9207H55.9612H56.0018H56.0424H56.0831H56.1237H56.1645H56.2053H56.2461H56.287H56.3279H56.3689H56.4099H56.4509H56.492H56.5332H56.5744H56.6156H56.6569H56.6982H56.7396H56.7811H56.8225H56.8641H56.9056H56.9473H56.9889H57.0307H57.0724H57.1143H57.1561H57.198H57.24H57.282H57.3241H57.3662H57.4084H57.4506H57.4929H57.5353H57.5776H57.6201H57.6626H57.7051H57.7477H57.7904H57.8331H57.8758H57.9187H57.9615H58.0045H58.0474H58.0905H58.1336H58.1767H58.2199H58.2632H58.3065H58.3499H58.3933H58.4368H58.4804H58.524H58.5677H58.6114H58.6552H58.699H58.7429H58.7869H58.8309H58.875H58.9192H58.9634H59.0077H59.052H59.0964H59.1408H59.1854H59.2299H59.2746H59.3193H59.3641H59.4089H59.4538H59.4988H59.5438H59.5889H59.634H59.6793H59.7245H59.7699H59.8153H59.8608H59.9064H59.952H59.9977H60.0434H60.0892H60.1351H60.1811H60.2271H60.2732H60.3194H60.3656H60.4119H60.4583H60.5047H60.5512H60.5978C65.8943 95.4476 70.4792 91.4593 73.4074 87.2695C76.5163 82.8213 78.7369 76.848 78.7369 70.5986V70.5214V70.4444V70.3677V70.2913V70.2151V70.1392V70.0636V69.9882V69.913V69.8382V69.7635V69.6891V69.615V69.5411V69.4675V69.3941V69.3209V69.248V69.1753V69.1029V69.0307V68.9587V68.887V68.8155V68.7443V68.6732V68.6025V68.5319V68.4616V68.3914V68.3216V68.2519V68.1825V68.1133V68.0443V67.9755V67.9069V67.8386V67.7704V67.7025V67.6348V67.5673V67.5001V67.433V67.3661V67.2995V67.233V67.1667V67.1007V67.0348V66.9692V66.9037V66.8385V66.7734V66.7085V66.6439V66.5794V66.5151V66.451V66.3871V66.3233V66.2598V66.1964V66.1332V66.0702V66.0074V65.9448V65.8823V65.82V65.7579V65.696V65.6342V65.5726V65.5112V65.4499V65.3888V65.3279V65.2671V65.2065V65.1461V65.0858V65.0257V64.9657V64.9059V64.8462V64.7867V64.7274V64.6682V64.6091V64.5502V64.4915V64.4329V64.3744V64.3161V64.2579V64.1999V64.142V64.0842V64.0266V63.9691V63.9117V63.8545V63.7974V63.7405V63.6836V63.6269V63.5704V63.5139V63.4576V63.4014V63.3453V63.2893V63.2335V63.1777V63.1221V63.0666V63.0112V62.956V62.9008V62.8457V62.7908V62.736V62.6812V62.6266V62.5721V62.5176V62.4633V62.4091V62.355V62.3009V62.247V62.1931V62.1394V62.0857V62.0321V61.9787V61.9253V61.872V61.8187V61.7656V61.7125V61.6595V61.6066V61.5538V61.5011V61.4484V61.3958V61.3433V61.2908V61.2384V61.1861V61.1339V61.0817V61.0296V60.9775V60.9256V60.8736V60.8218V60.77V60.7182V60.6665V60.6149V60.5633V60.5117V60.4602V60.4088V60.3574V60.3061V60.2548V60.2035V60.1523V60.1012V60.05V59.9989V59.9479V59.8969V59.8459V59.7949V59.744V59.6932V59.6423V59.5915V59.5407V59.4899V59.4392V59.3884V59.3377V59.2871V59.2364V59.1857V59.1351V59.0845V59.0339V58.9833V58.9328V58.8822V58.8316V58.7811V58.7306V58.68V58.6295V58.579V58.5284V58.4779V58.4274V58.3769V58.3263V58.2758V58.2252V58.1747V58.1241V58.0735V58.0229V57.9723V57.9217V57.8711V57.8204V57.7698V57.7191V57.6684V57.6177V57.5669V57.5161V57.4653V57.4145V57.3636V57.3127V57.2618V57.2109V57.1599V57.1088V57.0578V57.0067V56.9556V56.9044V56.8532V56.8019V56.7506V56.6992V56.6478V56.5964V56.5449V56.4933V56.4417V56.3901V56.3384V56.2866V56.2348V56.1829V56.1309V56.0789V56.0269V55.9747V55.9225V55.8703V55.8179V55.7655V55.7131V55.6605V55.6079V55.5552V55.5024V55.4496V55.3967V55.3437V55.2906V55.2374V55.1842V55.1309V55.0774V55.0239V54.9703V54.9166V54.8629V54.809V54.755V54.701V54.6468V54.5926V54.5382V54.4838V54.4292V54.3745V54.3198V54.2649V54.2099V54.1549V54.0997V54.0444V53.9889V53.9334V53.8778V53.822V53.7661V53.7101V53.654V53.5978V53.5414V53.4849V53.4283V53.3716V53.3147V53.2577V53.2006V53.1433V53.0859V53.0284V52.9708V52.913V52.855V52.797V52.7387V52.6804V52.6219V52.5632V52.5044V52.4455V52.3864V52.3272V52.2678V52.2082V52.1485V52.0887V52.0287V51.9685V51.9082V51.8477V51.7871V51.7263V51.6653V51.6041V51.5428V51.4814V51.4197V51.3579V51.2959V51.2337V51.1714V51.1089V51.0462V50.9833V50.9203V50.8571V50.7937V50.7301V50.6663V50.6023V50.5381V50.4738V50.4093V50.3445V50.2796V50.2145V50.1492V50.0837V50.018V49.9521V49.886V49.8197V49.7532V49.6864V49.6195V49.5524V49.4851V49.4175V49.3497V49.2818V49.2136V49.1452V49.0766V49.0077V48.9387V48.8694V48.7999V48.7302V48.6602V48.5901V48.5197V48.4491V48.3782V48.3071V48.2358V48.1643V48.0925V48.0205V47.9482V47.8757V47.803V47.73V47.6568V47.5833V47.5096V47.4356V47.3614V47.287V47.2123V47.1373V47.0621V46.9866V46.9109V46.835V46.7587V46.6822V46.6055V46.5285V46.4512V46.3736V46.2958V46.2178V46.1394V46.0608V45.9819V45.9028V45.8233V45.7436V45.6636V45.5834V45.5028V45.422V45.3409V45.2595V45.1779V45.0959V45.0137V44.9311V44.8483V44.7652V44.6818V44.5981V44.5141V44.4298V44.3452V44.2604V44.1752V44.0897V44.0039V43.9178V43.8314V43.7447V43.6577V43.5704V43.4828V43.3948V43.3066V43.218V43.1291V43.0399V42.9504V42.8606V42.7704V42.6799V42.5891V42.498V42.4066V42.3148V42.2227V42.1302V42.0375V41.9444V41.8509V41.7572V41.663V41.5686V41.4738V41.3787V41.2832V41.1874V41.0913Z" fill="white"/>
<path d="M89 91C89 93.2091 87.2092 95 85 95C82.7909 95 81 93.2091 81 91C81 88.7909 82.7909 87 85 87C87.2092 87 89 88.7909 89 91Z" fill="white"/>
</svg>